<svg width="18" height="19" viewBox="0 0 18 19" fill="none" xmlns="http://www.w3.org/2000/svg">
<path d="M11.1222 16.1977C10.8213 16.1528 10.5447 16.0069 10.3377 15.7839C10.2574 15.7003 10.1908 15.6044 10.1404 15.5H4.49565C4.10482 15.4992 3.72975 15.3458 3.45023 15.0727C3.17072 14.7995 3.00883 14.4281 2.99901 14.0374L3.74253 7.33281C3.74559 7.30531 3.74712 7.27767 3.74711 7.25C3.74717 6.8527 3.90483 6.47164 4.18549 6.19043C4.46615 5.90923 4.8469 5.75083 5.2442 5.75H5.27993C5.26131 5.87427 5.24939 5.99945 5.2442 6.125V7.62354C5.2442 7.7228 5.28364 7.818 5.35383 7.88819C5.42402 7.95838 5.51922 7.99781 5.61848 7.99781C5.71774 7.99781 5.81294 7.95838 5.88313 7.88819C5.95332 7.818 5.99276 7.7228 5.99276 7.62354V6.125C5.99601 5.99935 6.00775 5.87407 6.02789 5.75H10.8232C10.8433 5.87407 10.8551 5.99935 10.8583 6.125V7.62354C10.8583 7.7228 10.8978 7.818 10.968 7.88819C11.0381 7.95838 11.1333 7.99781 11.2326 7.99781C11.3319 7.99781 11.4271 7.95838 11.4973 7.88819C11.5674 7.818 11.6069 7.7228 11.6069 7.62354V6.125C11.6069 6.01147 11.5856 5.90409 11.5753 5.7934C11.9035 5.87099 12.1959 6.05696 12.4054 6.32126C12.6149 6.58556 12.7291 6.91276 12.7297 7.25C12.7297 7.27767 12.7313 7.30531 12.7343 7.33281L13.0482 10.3138L13.8206 10.4882L13.4783 7.25C13.4777 6.68716 13.2653 6.14515 12.8834 5.73172C12.5015 5.31829 11.978 5.06373 11.4169 5.01863C11.2213 4.37329 10.8267 3.80634 10.2894 3.39887C9.75208 2.99139 9.09969 2.76428 8.42552 2.75C7.75458 2.764 7.10509 2.98887 6.56914 3.39273C6.03319 3.79658 5.63798 4.35892 5.43958 5H5.2442C4.94901 5.00028 4.65677 5.05871 4.38416 5.17194C4.11155 5.28516 3.86391 5.45098 3.65539 5.65991C3.44686 5.86884 3.28152 6.1168 3.16882 6.38963C3.05612 6.66246 2.99827 6.95481 2.99855 7.25L2.25 14C2.24972 14.2952 2.30757 14.5875 2.42027 14.8604C2.53297 15.1332 2.69831 15.3812 2.90684 15.5901C3.11536 15.799 3.363 15.9648 3.63561 16.0781C3.90822 16.1913 4.20046 16.2497 4.49565 16.25H11.3672L11.1222 16.1977ZM8.42555 3.5C8.89668 3.51027 9.35461 3.65761 9.74334 3.92401C10.1321 4.19041 10.4347 4.56431 10.6143 5H6.23678C6.41636 4.56431 6.71903 4.1904 7.10775 3.92401C7.49648 3.65761 7.95441 3.51026 8.42555 3.5Z" fill="#143D5F"/>
<path d="M15.4349 14.3442L14.0783 12.9845L14.9622 12.0989C14.9971 12.0641 15.0247 12.0228 15.0435 11.9772C15.0623 11.9317 15.072 11.883 15.0719 11.8337C15.0712 11.7471 15.0401 11.6634 14.984 11.5974C14.9279 11.5313 14.8504 11.4871 14.765 11.4724L10.4335 10.4946C10.4135 10.4914 10.3934 10.4892 10.3731 10.4882C10.324 10.4882 10.2753 10.4979 10.2299 10.5167C10.1844 10.5356 10.1432 10.5632 10.1085 10.5981C10.0674 10.6404 10.037 10.692 10.0199 10.7485C10.0028 10.805 9.99958 10.8647 10.0104 10.9227L10.9692 15.24C10.9947 15.3178 11.033 15.3907 11.0825 15.4558C11.1452 15.5208 11.23 15.5598 11.3202 15.5651C11.4103 15.5703 11.4991 15.5415 11.5689 15.4843L12.4903 14.5757L13.8472 15.9358C14.049 16.1371 14.3225 16.2501 14.6076 16.25C14.8927 16.2498 15.1661 16.1366 15.3677 15.935L15.4349 15.8676C15.6367 15.6655 15.75 15.3915 15.75 15.1059C15.75 14.8203 15.6367 14.5464 15.4349 14.3442ZM14.9057 15.3374L14.8384 15.4048C14.8081 15.4352 14.7721 15.4593 14.7325 15.4757C14.6928 15.4922 14.6504 15.5007 14.6074 15.5007C14.5645 15.5007 14.522 15.4922 14.4824 15.4757C14.4427 15.4593 14.4067 15.4352 14.3764 15.4048L13.6988 14.7259L13.6196 14.6462L12.7551 13.7801C12.7204 13.7452 12.6791 13.7176 12.6337 13.6987C12.5883 13.6799 12.5396 13.6702 12.4904 13.6702C12.4412 13.6702 12.3926 13.6799 12.3471 13.6987C12.3017 13.7176 12.2605 13.7452 12.2258 13.7801L11.6215 14.3855L10.8858 11.3767L13.8895 12.1131L13.2845 12.7193C13.2143 12.7897 13.1747 12.8851 13.1747 12.9846C13.1747 13.084 13.2142 13.1793 13.2844 13.2497L14.9057 14.8753C14.9362 14.9052 14.9604 14.9411 14.9768 14.9806C14.9933 15.0201 15.0017 15.0624 15.0014 15.1052C15.0017 15.1483 14.9933 15.1911 14.9769 15.2309C14.9604 15.2708 14.9362 15.307 14.9057 15.3374Z" fill="#143D5F"/>
</svg>
