<svg width="18" height="19" viewBox="0 0 18 19" fill="none" xmlns="http://www.w3.org/2000/svg">
<path d="M9 2.75C11.925 2.75 14.25 5.075 14.25 8C14.25 10.25 10.8 14.075 9 15.95C7.2 14.075 3.75 10.25 3.75 8C3.75 5.15 6.075 2.75 9 2.75ZM9 2C5.7 2 3 4.7 3 8C3 11.3 9 17 9 17C9 17 15 11.3 15 8C15 4.7 12.3 2 9 2Z" fill="#143D5F"/>
<path d="M9 5.75018C10.05 5.75018 10.875 6.57518 10.875 7.62518C10.875 8.67518 9.975 9.50018 9 9.50018C8.025 9.50018 7.125 8.67518 7.125 7.62518C7.125 6.57518 7.95 5.75018 9 5.75018ZM9 5.00018C7.575 5.00018 6.375 6.20018 6.375 7.62518C6.375 9.05018 7.575 10.2502 9 10.2502C10.425 10.2502 11.625 9.05018 11.625 7.62518C11.625 6.20018 10.425 5.00018 9 5.00018Z" fill="#143D5F"/>
</svg>
